<svg height="500" width="500" xmlns="http://www.w3.org/2000/svg"><g><path d="M53.993 0C24.08 0 0 24.08 0 53.993v392.014C0 475.92 24.08 500 53.993 500h392.014C475.92 500 500 475.92 500 446.007V53.993C500 24.08 475.92 0 446.007 0H53.993zM545.26 247.212c14.392 0 32.985 10.05 38.694 23.397 7.438-1.73 15.1-2.812 23.06-2.812h123.51c7.96 0 15.62 1.083 23.06 2.812 5.708-13.348 24.3-23.397 38.694-23.397 17.047 0 20.585 13.886 20.585 30.933v31.384c12.785 17.127 20.585 38.195 20.585 61.192v41.17c0 56.85-46.075 102.925-102.925 102.925h-123.51c-56.85 0-102.924-46.075-102.924-102.925v-41.17c0-22.997 7.8-44.065 20.584-61.192v-31.384c0-17.047 3.538-30.933 20.585-30.933zm61.753 123.51c-34.093 0-61.754 27.66-61.754 61.754 0 34.094 27.66 61.755 61.753 61.755h123.51c34.094 0 61.755-27.66 61.755-61.755 0-34.094-27.66-61.755-61.755-61.755h-123.51zm0 20.584c17.047 0 20.585 13.887 20.585 30.934v10.912c0 17.047-3.538 30.934-20.585 30.934-17.046 0-20.584-13.887-20.584-30.934v-10.91c0-17.048 3.537-30.935 20.583-30.935zm123.51 0c17.047 0 20.585 13.887 20.585 30.934v10.912c0 17.047-3.538 30.934-20.585 30.934s-20.585-13.887-20.585-30.934v-10.91c0-17.048 3.538-30.935 20.585-30.935z"/></g></svg>