<svg height="500" width="500" xmlns="http://www.w3.org/2000/svg"><path d="M50 0C22.3 0 0 22.3 0 50v400c0 27.7 22.3 50 50 50h400c27.7 0 50-22.3 50-50V50c0-27.7-22.3-50-50-50H50zm89.906 105.78c19.182 0 34.72 15.538 34.72 34.72s-15.538 34.75-34.72 34.75-34.72-15.568-34.72-34.75c0-19.182 15.538-34.72 34.72-34.72zm181.875 90.44c3.923.013 7.926.198 13.314.53 26.184 1.615 55.36 22.08 56.22 70.03.705 39.494.498 102.082.498 125.126h-59.53c0-23.574.25-72.274.25-106.72 0-15.67-7.036-36.748-32.094-36.748-27.598 0-34.313 25.644-34.313 36.75 0 33.073-.28 85.75-.28 106.718h-59.19c0-35.344.376-156.653.376-190.906 30.57 0 45.192-.063 56.376-.063 0 11.218-.094 18.722-.094 26.907 9.337-18.852 34.832-30.655 45.75-31.22 4.98-.256 8.797-.42 12.72-.405zm-211.592 5.53h59.343v190.063h-59.343V201.75z"/></svg>