<svg height="500" width="500" xmlns="http://www.w3.org/2000/svg"><path d="M50 0C22.3 0 0 22.3 0 50v400c0 27.7 22.3 50 50 50h400c27.7 0 50-22.3 50-50V50c0-27.7-22.3-50-50-50H50zm163.125 53.156h56.25v91.5h91.5v70.656h-91.5V316.75c0 22.953-.264 36.215 2.156 42.72 2.42 6.47 8.47 13.186 15.064 17.06 8.78 5.26 18.76 7.876 30.03 7.876 20.036 0 39.964-6.515 59.782-19.53v62.405c-16.883 7.96-32.198 13.568-45.906 16.75-13.724 3.185-28.534 4.814-44.47 4.814-18.088 0-28.77-2.302-42.655-6.844-13.91-4.6-25.762-11.13-35.563-19.53-9.848-8.467-16.642-17.46-20.437-26.97-3.803-9.535-5.688-23.348-5.688-41.438v-138.75h-53.75V159.25c15.54-5.04 33.532-12.265 44.594-21.688 11.112-9.454 20.03-20.774 26.72-34 6.737-13.193 11.342-30.01 13.875-50.406z"/></svg>